<svg xmlns="http://www.w3.org/2000/svg" width="120" height="120" viewBox="0 0 120 120"><title>brands</title><path d="M59.19,0H16.36A16.38,16.38,0,0,0,0,16.36V59.19A16.26,16.26,0,0,0,4.79,70.76l44.45,44.45a16.38,16.38,0,0,0,23.15,0l42.82-42.82a16.38,16.38,0,0,0,0-23.15L70.76,4.79A16.26,16.26,0,0,0,59.19,0Z" fill="#fff"/><path d="M110.76,53.69h0L66.31,9.24a10.07,10.07,0,0,0-7.12-2.95H16.36A10.07,10.07,0,0,0,6.29,16.36V59.19a10.07,10.07,0,0,0,3,7.12l44.45,44.45a10.07,10.07,0,0,0,14.24,0l42.83-42.83A10.07,10.07,0,0,0,110.76,53.69ZM32.3,38.18a5.88,5.88,0,1,1,5.88-5.88A5.89,5.89,0,0,1,32.3,38.18Z"/><path d="M106,58.44,61.56,14a3.34,3.34,0,0,0-2.37-1H16.36A3.35,3.35,0,0,0,13,16.36V59.19a3.3,3.3,0,0,0,1,2.37L58.44,106a3.36,3.36,0,0,0,4.75,0L106,63.19A3.36,3.36,0,0,0,106,58.44ZM32.3,42.37A10.07,10.07,0,1,1,42.37,32.3,10.07,10.07,0,0,1,32.3,42.37Z" fill="#eb008b"/><path d="M84.14,50.23a48.85,48.85,0,0,0-6.38,2.65c-1-7.35-5.38-14.38-5.38-14.38a1.84,1.84,0,0,0-3.11,0A47.83,47.83,0,0,0,63.44,52.1C56.31,46,45.42,43,45.42,43A1.85,1.85,0,0,0,43,45.42s3,10.89,9.06,18a47.83,47.83,0,0,0-13.63,5.83,1.84,1.84,0,0,0,0,3.11s7,4.34,14.38,5.38a48.85,48.85,0,0,0-2.65,6.38,1.85,1.85,0,0,0,2.33,2.34s7.51-2.54,11.94-6.63c.24.59,1.42,2.93,1.42,2.93a1.84,1.84,0,0,0,3.27,0,44.25,44.25,0,0,0,3.35-8.2l4.56,4.56a.73.73,0,0,0,1,0l1-1a.73.73,0,0,0,0-1l-4.56-4.56a44.58,44.58,0,0,0,8.2-3.35,1.84,1.84,0,0,0,0-3.27s-2.34-1.18-2.93-1.42c4.09-4.43,6.63-11.94,6.63-11.94A1.85,1.85,0,0,0,84.14,50.23Z"/><path d="M47.33,47.33c2.73,1.1,10,3.24,15.71,8.92.4.4.79.8,1.15,1.19l1.72,1.84.2-2.51a35.35,35.35,0,0,1,4.68-14.52,32.66,32.66,0,0,1,4,14.51l0,2.14,1.73-1.27a27.08,27.08,0,0,1,5.84-3.28,26.19,26.19,0,0,1-5.58,8.54c-.65.65-1.25,1.21-1.82,1.71L73.37,66l2,.53a24.78,24.78,0,0,1,3.29,1.11,26.45,26.45,0,0,1-7.86,2.23L70,70l-.11.87a26.45,26.45,0,0,1-2.23,7.86,24.78,24.78,0,0,1-1.11-3.29l-.53-2L64.6,75c-.5.57-1.06,1.17-1.71,1.82a26.19,26.19,0,0,1-8.54,5.58,27.08,27.08,0,0,1,3.28-5.84l1.27-1.73-2.14,0a32.52,32.52,0,0,1-14.51-4,35.35,35.35,0,0,1,14.52-4.68l2.5-.2-1.83-1.72c-.39-.36-.79-.75-1.19-1.15-5.68-5.68-7.82-13-8.92-15.71" fill="#04e762"/></svg>