<svg id="Layer_1" data-name="Layer 1" xmlns="http://www.w3.org/2000/svg" viewBox="0 0 33.8 24">
  <defs>
    <style>
      .cls-1 {
        fill: #eb008b;
      }

      .cls-2 {
        fill: #dbdbdb;
      }

      .cls-3 {
        fill: #75daf9;
      }

      .cls-4 {
        fill: #04e762;
      }
    </style>
  </defs>
  <title>delivery-icon</title>
  <g>
    <g>
      <path d="M32.2,9.4,29.5,7.9s-3.7-5.4-4.7-6.4A5.7,5.7,0,0,0,20.9,0H2.1A2.1,2.1,0,0,0,0,2.1V18.3a2.1,2.1,0,0,0,2.1,2.1H3.4A4.3,4.3,0,0,0,7.6,24a4.2,4.2,0,0,0,4.2-3.6H22a4.3,4.3,0,0,0,8.4,0h1.3a2.1,2.1,0,0,0,2.1-2.1V11.8A2.5,2.5,0,0,0,32.2,9.4Z"/>
      <path class="cls-1" d="M31.5,10.9h-.1L28.5,9.3h-.2c-1.1-1.6-4.1-5.8-4.7-6.4a4.1,4.1,0,0,0-2.7-1H2.1a.4.4,0,0,0-.4.4V18.3a.4.4,0,0,0,.4.4H3.5a4.4,4.4,0,0,1,4.1-3.2,4.4,4.4,0,0,1,4.2,3.2H22.1a4.2,4.2,0,0,1,4.1-3.2,4.3,4.3,0,0,1,4.1,3.2h1.4a.4.4,0,0,0,.4-.4V11.8A1,1,0,0,0,31.5,10.9ZM26.8,9.3a1,1,0,0,1-.9.7H17.1a1.1,1.1,0,0,1-1-1V3.6a1.1,1.1,0,0,1,1-1.1h3.7a3.1,3.1,0,0,1,2.1.9c.5.5,3.5,4.6,3.7,4.9A.9.9,0,0,1,26.8,9.3Z"/>
      <circle class="cls-2" cx="7.6" cy="19.8" r="2.5"/>
      <circle class="cls-2" cx="26.2" cy="19.8" r="2.5"/>
      <path class="cls-3" d="M20.8,3.6a1.7,1.7,0,0,1,1.3.5c.3.2,2.1,2.7,3.6,4.8H17.2V3.6h3.6"/>
    </g>
    <g>
      <path d="M13.6,10.4l-1.3-.5a7.7,7.7,0,0,0,1.2-2.8c.1-.3-.1-.5-.4-.5a10.9,10.9,0,0,0-2.7,1.1A12.3,12.3,0,0,0,9.1,3.9c-.1-.3-.5-.3-.7,0A10.7,10.7,0,0,0,7.2,7.7,12.6,12.6,0,0,0,4.4,6.6c-.3,0-.5.2-.4.5A10.4,10.4,0,0,0,5.2,9.9a5.2,5.2,0,0,0-1.2.5c-.3.1-.3.5,0,.7a7,7,0,0,0,2.6.7,2.1,2.1,0,0,0-.2.6c-.1.3.1.6.4.5a9.8,9.8,0,0,0,1.7-.7v1.3c0,.1,0,.2.1.2h.3l.2-.2V12.2a7.3,7.3,0,0,0,1.6.7c.3.1.5-.2.4-.5a2.1,2.1,0,0,0-.2-.6,7.8,7.8,0,0,0,2.7-.7C13.8,10.9,13.8,10.5,13.6,10.4Z"/>
      <path class="cls-4" d="M8.8,4.8a9,9,0,0,1,.9,3.5v.8l.4-.3a7.6,7.6,0,0,1,2.7-1.4A6,6,0,0,1,11.3,10l-.3.3h.4l1.3.3a4.1,4.1,0,0,1-2,.5H9.8l.2.4a1.1,1.1,0,0,1,.3.6,5.5,5.5,0,0,1-1.4-.8H8.6a3.4,3.4,0,0,1-1.4.8l.3-.6.2-.4H6.8a4.1,4.1,0,0,1-2-.5l1.3-.3h.4L6.2,10A6,6,0,0,1,4.7,7.4,6.8,6.8,0,0,1,7.4,8.8l.4.3V8.3a7.3,7.3,0,0,1,1-3.5"/>
    </g>
  </g>
</svg>
