<svg id="Layer_1" data-name="Layer 1" xmlns="http://www.w3.org/2000/svg" viewBox="0 0 28.9 24">
  <defs>
    <style>
      .cls-1 {
        fill: #c3e2f4;
      }

      .cls-2 {
        fill: #04e762;
      }

      .cls-3 {
        fill: #f7e0cd;
      }

      .cls-4 {
        fill: #75daf9;
      }

      .cls-5 {
        fill: #fbcca0;
      }
    </style>
  </defs>
  <title>retail-disp-icon</title>
  <g>
    <g>
      <path d="M28.2,5.6,25.2.7A1.7,1.7,0,0,0,23.9,0H4.6a1.6,1.6,0,0,0-.9.7L.7,5.6a4.3,4.3,0,0,0,1.7,6.1v9.8A2.5,2.5,0,0,0,4.9,24h19a2.5,2.5,0,0,0,2.5-2.5V11.7A4.2,4.2,0,0,0,28.2,5.6Z"/>
      <polygon class="cls-1" points="11.7 21.2 11.7 21.2 11.7 21.2 11.7 21.2 11.7 21.2"/>
      <path class="cls-2" d="M14.4,8.2l.3.3.9.9a3,3,0,0,0,4.6,0l.9-.9.3-.3.2.3.9.9a3,3,0,0,0,2.3,1.1h.5a2.5,2.5,0,0,0,1.8-1.4,2.6,2.6,0,0,0-.2-2.7l-3-4.9H5L1.9,6.4a2.9,2.9,0,0,0-.1,2.7h0a2.2,2.2,0,0,0,1.8,1.4h.5A3,3,0,0,0,6.4,9.4l.8-.9.3-.3.3.3.8.9A3.2,3.2,0,0,0,11,10.5a3,3,0,0,0,2.3-1.1l.9-.9Z"/>
      <path class="cls-3" d="M24.8,12a5.4,5.4,0,0,1-2.1-.5,4.2,4.2,0,0,1-1.4-.9,3.8,3.8,0,0,1-1.3.9,5.4,5.4,0,0,1-2.1.5,5.2,5.2,0,0,1-3.5-1.4,3.8,3.8,0,0,1-1.3.9A5.4,5.4,0,0,1,11,12a5,5,0,0,1-3.5-1.4,4.2,4.2,0,0,1-1.4.9A4.6,4.6,0,0,1,4,12H3.9v9.5a.9.9,0,0,0,1,1h12V13.1a.7.7,0,0,1,.7-.7h5.5a.7.7,0,0,1,.7.7v9.4h.1a1,1,0,0,0,1-1V12Zm-10,8.7a.8.8,0,0,1-.7.8H5.6a.8.8,0,0,1-.7-.8V13.1a.7.7,0,0,1,.7-.7h8.5a.7.7,0,0,1,.7.7Z"/>
      <rect class="cls-4" x="5.8" y="13.3" width="8.1" height="7.24"/>
      <rect class="cls-5" x="17.8" y="13.3" width="5.1" height="9.22"/>
      <circle cx="18.8" cy="18.2" r="0.5"/>
    </g>
    <g>
      <path d="M12.7,17.9l-.8-.3a4.2,4.2,0,0,0,.8-1.6.3.3,0,0,0-.3-.3,5,5,0,0,0-1.6.7,7.7,7.7,0,0,0-.7-2.3H9.7a6.7,6.7,0,0,0-.8,2.3,5,5,0,0,0-1.6-.7c-.1,0-.3.1-.2.3a5,5,0,0,0,.7,1.6l-.7.3a.2.2,0,0,0,0,.4,5.9,5.9,0,0,0,1.5.5v.3c-.1.2.1.4.2.3l1-.4v.8H10V19l1,.4c.2.1.3-.1.3-.3s-.1-.3-.2-.3a5.8,5.8,0,0,0,1.6-.5A.3.3,0,0,0,12.7,17.9Z"/>
      <path class="cls-2" d="M9.9,14.6a6.4,6.4,0,0,1,.5,2.1v.5l.2-.2a3.2,3.2,0,0,1,1.6-.8,3.6,3.6,0,0,1-.8,1.5l-.2.2h.2l.8.2a2.5,2.5,0,0,1-1.2.3h-.5v.3l.2.3a2,2,0,0,1-.8-.4H9.8l-.8.4a.4.4,0,0,1,.1-.3l.2-.3H8.7a3,3,0,0,1-1.2-.3l.8-.2h.3l-.2-.2a4.3,4.3,0,0,1-.9-1.5,2.9,2.9,0,0,1,1.6.8l.2.2v-.5a4.4,4.4,0,0,1,.6-2.1"/>
    </g>
  </g>
</svg>
