<svg id="Layer_1" data-name="Layer 1" xmlns="http://www.w3.org/2000/svg" viewBox="0 0 31 27.6">
  <defs>
    <style>
      .cls-1 {
        fill: #ab0cf6;
      }

      .cls-2 {
        fill: #f7e0cd;
      }
    </style>
  </defs>
  <title>influencer-icon</title>
  <g>
    <path d="M29.3,10V1.7A1.8,1.8,0,0,0,27.6,0h0a1.5,1.5,0,0,0-1.1.4L21.9,4a12.8,12.8,0,0,1-8.1,2.9H3.4A3.4,3.4,0,0,0,0,10.3v5.2a3.4,3.4,0,0,0,3.4,3.4v1.8a13.1,13.1,0,0,0,1.4,5.9,1.8,1.8,0,0,0,1.5,1H12a1.7,1.7,0,0,0,1.4-2.8A7.2,7.2,0,0,1,12,20.7a5.7,5.7,0,0,1,.3-1.8h1.5a13.4,13.4,0,0,1,8.1,2.9l4.6,3.7a2,2,0,0,0,1.1.3,1.7,1.7,0,0,0,1.7-1.7V15.9a3.5,3.5,0,0,0,1.7-3A3.2,3.2,0,0,0,29.3,10Z"/>
    <path class="cls-1" d="M3.4,17.2a1.8,1.8,0,0,1-1.7-1.7V10.3A1.8,1.8,0,0,1,3.4,8.6H13.8v8.6Z"/>
    <path class="cls-2" d="M12,25.8H6.3a11.3,11.3,0,0,1-1.2-5.1V19h5.3a11,11,0,0,0-.2,1.8A8.2,8.2,0,0,0,12,25.8Z"/>
    <path class="cls-2" d="M27.6,24.1h-.1L23,20.4a16,16,0,0,0-7.5-3.1V8.5A15.1,15.1,0,0,0,23,5.4l4.5-3.7h.1V24.1Z"/>
  </g>
</svg>
