<svg xmlns="http://www.w3.org/2000/svg" width="120" height="120" viewBox="0 0 120 120"><title>personal</title><path d="M60,0a60,60,0,1,0,60,60A60.07,60.07,0,0,0,60,0Z" fill="#fff"/><circle cx="60" cy="60" r="53.71" transform="translate(-24.85 60) rotate(-45)"/><polygon points="53.53 82.41 53.53 82.42 53.53 82.41 53.53 82.41 53.53 82.41" fill="#c3e2f4"/><path d="M60,97.84" fill="none" stroke="#231f20" stroke-miterlimit="10" stroke-width="0.75"/><path d="M46.23,89.05" fill="none" stroke="#231f20" stroke-miterlimit="10" stroke-width="0.75"/><path d="M60,97.84" fill="none" stroke="#231f20" stroke-miterlimit="10" stroke-width="0.75"/><path d="M73.84,89.05" fill="none" stroke="#231f20" stroke-miterlimit="10" stroke-width="0.75"/><path d="M43.65,61.3v-1c0-3.23-.79-4.19-1.06-4.27h0a3,3,0,0,0-.72.75c-.84,1.21-.12,4.5,1.08,6.64a4.76,4.76,0,0,0,1,1.31V61.3Z" fill="#fbcca0"/><path d="M60,44.72a42.53,42.53,0,0,1,9.12,1c4.17.91,5.31,7.12,5.61,11.17a4.71,4.71,0,0,1,1.14-2.21,2.91,2.91,0,0,1,.67-.48,26.15,26.15,0,0,0,1.2-6.56C78.24,41,75.92,33.27,68,31.31,61.31,29.67,56.23,30,52.43,32.42a11.11,11.11,0,0,0-3,2.75l-.17.31c-.16.29-.36.66-.52.9l-.14.22-.24.12-.53.28-.25.11c-6,1.52-5.45,9.77-5.12,12.31l.12.78a29.79,29.79,0,0,0,.94,4,3.14,3.14,0,0,1,.67.48,4.71,4.71,0,0,1,1.14,2.21c.3-4.06,1.44-10.26,5.61-11.17A42.44,42.44,0,0,1,60,44.72Z" fill="#5c2f11"/><path d="M72.79,61.3l0-1c.09-3-.48-11.77-4.1-12.56a40.07,40.07,0,0,0-17.37,0c-3.63.79-4.19,9.55-4.1,12.56l0,1H45.67v6.32a9.3,9.3,0,0,0,2.71,6.59l4.2,4.25a9.43,9.43,0,0,0,6.67,2.78h1.57a9.43,9.43,0,0,0,6.67-2.78l4.2-4.25a9.3,9.3,0,0,0,2.71-6.59V61.3Z" fill="#fbcca0"/><path d="M55.56,92.58a9,9,0,0,0,9,0,8,8,0,0,0,3.64-3.85v-7a11.49,11.49,0,0,1-7.35,2.69H59.28a11.45,11.45,0,0,1-7.35-2.69v7A7.94,7.94,0,0,0,55.56,92.58Z" fill="#fbcca0"/><path d="M76.42,61.3v-1c0-3.23.79-4.19,1.06-4.27h0a3.2,3.2,0,0,1,.72.75c.84,1.21.12,4.5-1.08,6.64a5,5,0,0,1-1,1.31V61.3Z" fill="#fbcca0"/><path d="M53.71,97.3a13.45,13.45,0,0,0,12.65,0,10.72,10.72,0,0,0,5.79-6.86l-1.74-.77a10,10,0,0,1-5,5.84,11,11,0,0,1-10.83,0,10,10,0,0,1-5-5.84l-1.74.77A10.72,10.72,0,0,0,53.71,97.3Z" fill="#eb008b"/><path d="M84.72,96l-11-4.87a12.43,12.43,0,0,1-6.6,7.68A15.13,15.13,0,0,1,53,98.8a12.43,12.43,0,0,1-6.6-7.68L35.35,96a7.12,7.12,0,0,0-2.43,2.51,47,47,0,0,0,54.21,0A7.2,7.2,0,0,0,84.72,96Z" fill="#eb008b"/><path d="M60,12.92A47.06,47.06,0,0,0,28.7,95.14h0a12,12,0,0,1,3.61-3.59h0l0,0,.08,0,0,0h0l.38-.2,0,0,.06,0,6.64-2.58,7.32-3.39V80.17l-2.26-2.29a14.52,14.52,0,0,1-4.2-9.56l-.42-.42A15.15,15.15,0,0,1,37,61.65c-.77-3.11-.49-5.85.8-7.71l.17-.24-.13-.64q-.21-.95-.36-1.83v-.06A23.69,23.69,0,0,1,37.72,41c1.15-4.24,3.65-7.19,7.23-8.54.09-.15.19-.3.27-.41a16.38,16.38,0,0,1,4.43-4,20,20,0,0,1,10.91-2.92,36.68,36.68,0,0,1,8.67,1.17,17.11,17.11,0,0,1,10.62,7.66,23.17,23.17,0,0,1,3.13,14,29.86,29.86,0,0,1-.85,5.75l.18.25c1.29,1.86,1.57,4.6.8,7.72A15.15,15.15,0,0,1,80,67.9l-.42.42a14.52,14.52,0,0,1-4.2,9.56l-2.26,2.29v5.06l7.38,3.42,6.64,2.76.08,0,.08,0,.06,0a12.35,12.35,0,0,1,3.86,3.68A47.06,47.06,0,0,0,60,12.92Z" fill="#f5f8fa"/></svg>