<svg xmlns="http://www.w3.org/2000/svg" width="108.58" height="120" viewBox="0 0 108.58 120"><title>service</title><path d="M103.87,80.61l0,0A14.09,14.09,0,0,0,94.42,77a14.58,14.58,0,0,0-9.11,3.21l-9.55,7.64a9.91,9.91,0,0,0-.12-1.08A14.92,14.92,0,0,0,61.4,74.25a6.84,6.84,0,0,0,.06-.91v-1c2.58,1,4.59,1.61,4.75,1.66h0a7.69,7.69,0,0,0,9.83-8.24A68.28,68.28,0,0,0,89.91,61l0,0a7.7,7.7,0,0,0,0-13.73h0c-.29-.15-1.68-.83-3.48-1.63A69.25,69.25,0,0,0,92.6,29.86v0a7.7,7.7,0,0,0-9.08-9.27h0a77.43,77.43,0,0,0-14.17,4.77A88.8,88.8,0,0,0,61.18,4.27,7.61,7.61,0,0,0,54.29,0h0A7.61,7.61,0,0,0,47.4,4.27a88.65,88.65,0,0,0-8.17,21.08,77.46,77.46,0,0,0-14.16-4.77h0A7.7,7.7,0,0,0,16,29.84v0a69.5,69.5,0,0,0,6.14,15.72c-1.79.8-3.18,1.48-3.47,1.63h0a7.69,7.69,0,0,0,0,13.73l0,0a68.55,68.55,0,0,0,13.83,4.85,7.71,7.71,0,0,0,6.15,8.41H36.07a21.57,21.57,0,0,0-12.9,4.3L18,82.42H6.49A6.5,6.5,0,0,0,0,88.91v2.73a6.44,6.44,0,0,0,1.37,4V106.8a6.44,6.44,0,0,0-1.37,4v2.73A6.5,6.5,0,0,0,6.49,120H74.86A17.9,17.9,0,0,0,86,116.08l17.24-13.79a14.24,14.24,0,0,0,.62-21.68ZM42.33,74.06h0c.16,0,2.18-.67,4.75-1.66v1a6.54,6.54,0,0,0,.06.89H41.6C41.85,74.18,42.09,74.13,42.33,74.06Z" fill="#fff"/><path d="M87.64,51.79a66,66,0,0,0-8.88-3.67c6.21-8.25,8.86-19.44,8.86-19.44a2.58,2.58,0,0,0-3-3.1s-10.88,2.34-19.15,7.69c-1.06-13-8.81-26.64-8.81-26.64a2.57,2.57,0,0,0-4.68,0s-7.76,13.66-8.81,26.63C34.87,27.92,24,25.58,24,25.58a2.57,2.57,0,0,0-3,3.1s2.65,11.19,8.85,19.44a66.24,66.24,0,0,0-8.87,3.67,2.57,2.57,0,0,0,0,4.59s9.88,4.88,18.26,5.21c-.34.83-1.49,4.29-1.49,4.29a2.57,2.57,0,0,0,3.17,3.27,61.36,61.36,0,0,0,11.36-4.78v9a1,1,0,0,0,1,1h2.05a1,1,0,0,0,1-1v-9a61.33,61.33,0,0,0,11.37,4.78,2.57,2.57,0,0,0,3.17-3.27s-1.15-3.46-1.49-4.29c8.37-.33,18.25-5.21,18.25-5.21A2.57,2.57,0,0,0,87.64,51.79Z"/><path d="M54.29,12.71C55.89,16.5,61,25.78,61,37c0,.77,0,1.55,0,2.29l-.11,3.5,2.66-2.28A49.3,49.3,0,0,1,82.35,30.8,45.15,45.15,0,0,1,72,49l-2.06,2.15,3,.44a37.82,37.82,0,0,1,9,2.53A36.6,36.6,0,0,1,68,57c-1.29,0-2.43,0-3.48-.12l-2.92-.2L63,59.2a33.43,33.43,0,0,1,2.15,4.33A37,37,0,0,1,55.24,58l-1-.76-1,.76a36.74,36.74,0,0,1-9.94,5.54,36.3,36.3,0,0,1,2.15-4.33L47,56.68l-2.92.21c-1.05.07-2.19.11-3.48.11a36.67,36.67,0,0,1-13.88-2.91,37.94,37.94,0,0,1,9-2.53l2.94-.44L36.59,49A45.34,45.34,0,0,1,26.22,30.8,49.25,49.25,0,0,1,45.1,40.47l2.66,2.28-.12-3.5c0-.74,0-1.52,0-2.29,0-11.18,5.08-20.46,6.68-24.25" fill="#04e762"/><path d="M100.43,84.41a9,9,0,0,0-6-2.29,9.41,9.41,0,0,0-5.9,2.08L78,92.62a1.85,1.85,0,0,1-1.14.39h-7.1a9.45,9.45,0,0,0,.81-5.51,9.83,9.83,0,0,0-9.86-8.15H36.07a16.34,16.34,0,0,0-9.83,3.28l-6.56,4.92H6.49a1.37,1.37,0,0,0-1.37,1.36v2.73A1.38,1.38,0,0,0,6.49,93h15l8-6a10.92,10.92,0,0,1,6.55-2.18h25a4.1,4.1,0,0,1,0,8.19h-15a2.73,2.73,0,1,0,0,5.46H76.86a7.35,7.35,0,0,0,4.56-1.59l10.51-8.39a4,4,0,0,1,2.49-.89,3.49,3.49,0,0,1,2.36.89,3.63,3.63,0,0,1-.15,5.56L79.42,107.83a7.27,7.27,0,0,1-4.56,1.59H6.49a1.37,1.37,0,0,0-1.37,1.36v2.73a1.38,1.38,0,0,0,1.37,1.37H74.86a12.72,12.72,0,0,0,8-2.8L100,98.3a9.09,9.09,0,0,0,.39-13.89Z"/><path d="M6.49,93h15l8-6a10.92,10.92,0,0,1,6.55-2.18h25a4.1,4.1,0,0,1,0,8.19h-15a2.73,2.73,0,1,0,0,5.46H76.86a7.35,7.35,0,0,0,4.56-1.59l10.51-8.39a4,4,0,0,1,2.49-.89,3.49,3.49,0,0,1,2.36.89,3.63,3.63,0,0,1-.15,5.56L79.42,107.83a7.27,7.27,0,0,1-4.56,1.59H6.49Z" fill="#fbcca0"/></svg>