<svg xmlns="http://www.w3.org/2000/svg" width="141.74" height="120" viewBox="0 0 141.74 120"><title>retail</title><path d="M113.2,0H28.45a13.38,13.38,0,0,0-3.21.4h-.08a13,13,0,0,0-7.65,5.66h0L3.89,27.81A25.72,25.72,0,0,0,1.14,49a24.68,24.68,0,0,0,9.49,13.12v40.36A17.54,17.54,0,0,0,28.14,120h85a17.53,17.53,0,0,0,17.51-17.51v-40a24.47,24.47,0,0,0,9.84-13.06,25.63,25.63,0,0,0-2.63-21.57L124.23,6.1a13.05,13.05,0,0,0-11-6.1Z" fill="#fff"/><path d="M132.51,31.17,118.89,9.44a6.71,6.71,0,0,0-5.68-3.15H28.45a7,7,0,0,0-1.65.21,6.72,6.72,0,0,0-3.95,2.92L9.23,31.15c-6.15,9.81-2.17,23,7.7,27.32v44a11.23,11.23,0,0,0,11.22,11.22h85a11.23,11.23,0,0,0,11.22-11.22V58.68C134.55,54.54,138.76,41.14,132.51,31.17Z"/><polygon points="58.64 101.24 58.64 101.24 58.64 101.24 58.64 101.24 58.64 101.24" fill="#c3e2f4"/><path d="M70.91,43l1.25,1.39,3.76,4.19a14,14,0,0,0,21,0l3.75-4.19L101.89,43l1.26,1.38,3.73,4.15a14,14,0,0,0,10.5,4.72,16.32,16.32,0,0,0,2-.12,10.64,10.64,0,0,0,8.24-6.26,12.81,12.81,0,0,0-.7-12.14L113.29,13H28.53L14.92,34.76a12.8,12.8,0,0,0-.7,12.15h0a10.63,10.63,0,0,0,8.25,6.24,14.12,14.12,0,0,0,12.45-4.59l3.74-4.19L39.92,43l1.25,1.39,3.77,4.19a14,14,0,0,0,21,0l3.74-4.19Z" fill="#e9078a"/><path d="M117.29,60a22.46,22.46,0,0,1-15.48-6.22A22.4,22.4,0,0,1,86.33,60a22.49,22.49,0,0,1-15.48-6.21,22.44,22.44,0,0,1-6.13,4.16,22.17,22.17,0,0,1-9.36,2,22.53,22.53,0,0,1-15.48-6.21A22.46,22.46,0,0,1,24.4,60l-.83,0v42.53a4.59,4.59,0,0,0,4.58,4.58l53.77,0h0V65a3.35,3.35,0,0,1,3.36-3.35h24.33A3.35,3.35,0,0,1,113,65V107h.35a4.55,4.55,0,0,0,4.38-4.55V60ZM72.73,99.06a3.35,3.35,0,0,1-3.35,3.36H31.57a3.36,3.36,0,0,1-3.36-3.36V65a3.36,3.36,0,0,1,3.36-3.35H69.38A3.35,3.35,0,0,1,72.73,65Z" fill="#f7e0cd"/><rect x="32.41" y="65.8" width="36.13" height="32.42" fill="#75daf9"/><rect x="86.12" y="65.8" width="22.66" height="41.26" fill="#fbcca0"/><circle cx="90.22" cy="87.95" r="2.1"/><path d="M63.07,86.56a24.5,24.5,0,0,0-3.35-1.38,22.84,22.84,0,0,0,3.34-7.35,1,1,0,0,0-1.14-1.17,25.33,25.33,0,0,0-7.24,2.91c-.39-4.91-3.32-10.07-3.32-10.07a1,1,0,0,0-1.77,0s-2.93,5.16-3.33,10.06A25.36,25.36,0,0,0,39,76.66a1,1,0,0,0-1.15,1.17,22.73,22.73,0,0,0,3.35,7.35,24.85,24.85,0,0,0-3.36,1.38,1,1,0,0,0,0,1.74,20.9,20.9,0,0,0,6.9,2c-.13.31-.56,1.61-.56,1.61a1,1,0,0,0,1.19,1.24,23.11,23.11,0,0,0,4.3-1.81V94.7a.38.38,0,0,0,.38.39h.78a.38.38,0,0,0,.39-.39V91.31a23.14,23.14,0,0,0,4.29,1.81,1,1,0,0,0,1.2-1.24s-.43-1.3-.56-1.61a20.81,20.81,0,0,0,6.89-2A1,1,0,0,0,63.07,86.56Z"/><path d="M50.47,71.8C51.08,73.23,53,76.74,53,81c0,.29,0,.59,0,.87l0,1.32,1-.86a18.63,18.63,0,0,1,7.13-3.66,17.06,17.06,0,0,1-3.91,6.87l-.78.81,1.11.17a14.18,14.18,0,0,1,3.39,1,13.8,13.8,0,0,1-5.24,1.1c-.49,0-.92,0-1.32,0l-1.1-.08.56,1A13.91,13.91,0,0,1,54.59,91a14,14,0,0,1-3.76-2.1l-.36-.28-.36.28A13.85,13.85,0,0,1,46.36,91a12.47,12.47,0,0,1,.81-1.64l.56-1-1.11.08c-.39,0-.82,0-1.31,0a13.75,13.75,0,0,1-5.24-1.1,14,14,0,0,1,3.39-1l1.11-.17-.78-.81a17,17,0,0,1-3.92-6.87A18.56,18.56,0,0,1,47,82.29l1,.86,0-1.32c0-.29,0-.58,0-.87,0-4.22,1.92-7.73,2.52-9.16" fill="#04e762"/></svg>