<svg id="Layer_1" data-name="Layer 1" xmlns="http://www.w3.org/2000/svg" viewBox="0 0 60 76.5">
  <defs>
    <style>
      .cls-1 {
        fill: #fff;
      }

      .cls-2 {
        fill: none;
        stroke: #231f20;
        stroke-miterlimit: 10;
        stroke-width: 0.75px;
      }

      .cls-3 {
        fill: #fbcca0;
      }

      .cls-4 {
        fill: #5c2f11;
      }

      .cls-5 {
        fill: #eb008b;
      }
    </style>
  </defs>
  <title>ic-profile</title>
  <g>
    <path class="cls-1" d="M53.4,52.8l-5.9-2.5-3.2-1.5.4-.4A14.7,14.7,0,0,0,49,39.7c2.6-3.2,4.5-9.2,2.4-13.8a16.1,16.1,0,0,0,.4-3.7C52.6,11.8,47,3.3,38,1,30.5-.8,24.4-.2,19.5,2.9a16.4,16.4,0,0,0-4.2,3.7C8.3,10,6.6,18.7,8.2,25.8h0C6.1,30.5,8,36.5,10.5,39.7a16,16,0,0,0,4.3,8.7l.5.4-3.2,1.5L7.4,52.4l-1.1.5A13.8,13.8,0,0,0,.1,66l.5,4.5a6.7,6.7,0,0,0,6.7,6H52.7a6.8,6.8,0,0,0,6.8-6l.4-4.2A13.8,13.8,0,0,0,53.4,52.8Z"/>
    <g>
      <g>
        <path d="M6.4,70.8H53.7l.5-5.2a7.8,7.8,0,0,0-3.8-7.8l-5.2-2.2-6.8-3.2V46.6l2.2-2.2a9.6,9.6,0,0,0,2.9-6.9v-.3l.7-.7c1.6-1.7,3.3-6.4,1.7-8.8l-.6-.7a20.5,20.5,0,0,0,.8-5.1c.6-7.7-3.2-13.7-9.5-15.3S26.1,5.5,22.5,7.8a11.2,11.2,0,0,0-3,2.7l-.3.6h-.1c-6,1.8-6.2,9.3-5.4,13h0l.3,1.4.2,1.3a1.8,1.8,0,0,0-.5.7c-1.7,2.4.1,7.1,1.6,8.8l.8.7v.3a9.9,9.9,0,0,0,2.8,6.9l2.3,2.2v5.8l-6.8,3.2-4.8,2H9.4a8,8,0,0,0-3.6,7.7Z"/>
        <g>
          <g>
            <path class="cls-2" d="M29.8,61.3"/>
            <path class="cls-2" d="M18.9,54.3"/>
            <path class="cls-2" d="M29.8,61.3"/>
            <path class="cls-2" d="M40.6,54.3"/>
          </g>
          <path class="cls-3" d="M42.5,28.4v6.8l.8-1c.9-1.7,1.4-4.3.8-5.3a1.4,1.4,0,0,0-1-.7C42.9,28.1,42.6,28.3,42.5,28.4Z"/>
          <path class="cls-3" d="M16.9,32.5v-.8c0-2.5-.6-3.3-.8-3.3H16l-.5.5c-.7,1-.1,3.6.8,5.3a4.9,4.9,0,0,0,.8,1V32.5Z"/>
          <path class="cls-4" d="M29.8,19.5a30,30,0,0,1,7.2.8c3.2.7,4.1,5.6,4.4,8.7a3.9,3.9,0,0,1,.9-1.7,1,1,0,0,1,.5-.4,16.6,16.6,0,0,0,.9-5.1c.4-5.2-1.4-11.3-7.7-12.9s-9.2-1-12.2.9A7.3,7.3,0,0,0,21.4,12v.2l-.4.7v.2h-.2a.5.5,0,0,0-.4.2H20c-4.8,1.2-4.3,7.7-4.1,9.7v.6a20.3,20.3,0,0,0,.8,3.1l.5.4a3.9,3.9,0,0,1,.9,1.7c.2-3.1,1.1-8,4.4-8.7A29.4,29.4,0,0,1,29.8,19.5Z"/>
          <path class="cls-3" d="M39.8,32.5v-.8c.1-2.4-.3-9.3-3.2-9.9a31.7,31.7,0,0,0-13.7,0c-2.8.6-3.2,7.5-3.2,9.9v.8H18.5v5a7.3,7.3,0,0,0,2.1,5.2L23.9,46a7.5,7.5,0,0,0,5.3,2.2h1.2A7.1,7.1,0,0,0,35.6,46l3.3-3.3a7.4,7.4,0,0,0,2.2-5.2v-5Z"/>
        </g>
      </g>
      <path class="cls-5" d="M24.8,60.8a10.4,10.4,0,0,0,10,0,8.3,8.3,0,0,0,4.5-5.4L38,54.8a8.1,8.1,0,0,1-3.9,4.6,8.8,8.8,0,0,1-8.6,0,8.1,8.1,0,0,1-3.9-4.6l-1.3.7A8.2,8.2,0,0,0,24.8,60.8Z"/>
      <path class="cls-3" d="M26.3,58a6.8,6.8,0,0,0,7,0,6,6,0,0,0,2.9-3V47.7a9.4,9.4,0,0,1-5.8,2.1H29.2a9.4,9.4,0,0,1-5.8-2.1V55A6,6,0,0,0,26.3,58Z"/>
      <path class="cls-5" d="M8.6,68.4H51.5l.3-3.2a5.4,5.4,0,0,0-2.6-5.4l-9.1-4a9.5,9.5,0,0,1-5,5.8,13.3,13.3,0,0,1-5.3,1.3,13.3,13.3,0,0,1-5.3-1.3,9.2,9.2,0,0,1-5-5.8l-8.9,4a5.7,5.7,0,0,0-2.4,5.3Z"/>
    </g>
  </g>
</svg>
