<svg id="Layer_1" data-name="Layer 1" xmlns="http://www.w3.org/2000/svg" viewBox="0 0 27 24">
  <defs>
    <style>
      .cls-1 {
        fill: #75daf9;
      }

      .cls-2 {
        fill: #dbdbdb;
      }

      .cls-3 {
        fill: #04e762;
      }
    </style>
  </defs>
  <title>online-icon</title>
  <g>
    <g>
      <g>
        <path d="M20.2,22.5H16.9L16,19.1c0-.2-.3-.4-.5-.4h-4c-.2,0-.5.2-.5.4l-.9,3.4H6.8a.8.8,0,0,0-.8.7.8.8,0,0,0,.8.8H20.3a.7.7,0,0,0,.7-.8A.8.8,0,0,0,20.2,22.5Z"/>
        <path d="M24.8,0H2.3A2.3,2.3,0,0,0,0,2.3V15.8A2.2,2.2,0,0,0,2.3,18H24.8A2.2,2.2,0,0,0,27,15.8V2.3A2.2,2.2,0,0,0,24.8,0Z"/>
      </g>
      <rect class="cls-1" x="1.5" y="1.5" width="24" height="15" rx="0.8" ry="0.8"/>
      <polygon class="cls-2" points="11.7 22.5 12.2 20.2 14.8 20.2 15.3 22.5 11.7 22.5"/>
    </g>
    <g>
      <path d="M18.3,10.4A4.8,4.8,0,0,0,17,9.9a9,9,0,0,0,1.3-2.8.3.3,0,0,0-.4-.4,8.7,8.7,0,0,0-2.8,1.1,10.7,10.7,0,0,0-1.2-3.9c-.2-.3-.6-.3-.7,0a12.2,12.2,0,0,0-1.3,3.9A7.8,7.8,0,0,0,9.2,6.7c-.3-.1-.5.1-.4.4A7.7,7.7,0,0,0,10,9.9a5.2,5.2,0,0,0-1.2.5c-.3.1-.3.5,0,.7a7,7,0,0,0,2.6.7,2.1,2.1,0,0,0-.2.6c-.1.3.1.6.4.5a7.3,7.3,0,0,0,1.6-.7v1.3h.6V12.2a9.8,9.8,0,0,0,1.7.7c.2.1.5-.2.4-.5a2.1,2.1,0,0,0-.2-.6,7,7,0,0,0,2.6-.7C18.6,10.9,18.6,10.5,18.3,10.4Z"/>
      <path class="cls-3" d="M13.5,4.8a7.3,7.3,0,0,1,1,3.5v.8l.4-.3a6.8,6.8,0,0,1,2.7-1.4A6,6,0,0,1,16.1,10l-.3.3h.4l1.3.3a4.1,4.1,0,0,1-2,.5h-.9l.2.4.3.6-1.4-.8h-.3l-1.4.8a1.1,1.1,0,0,1,.3-.6l.2-.4h-.9a4.1,4.1,0,0,1-2-.5l1.3-.3h.4L11,10A6,6,0,0,1,9.5,7.4a6.8,6.8,0,0,1,2.7,1.4l.4.3V8.3a9,9,0,0,1,.9-3.5"/>
    </g>
  </g>
</svg>
