<svg id="Layer_1" data-name="Layer 1" xmlns="http://www.w3.org/2000/svg" viewBox="0 0 80 80">
  <defs>
    <style>
      .cls-1 {
        fill: #fff;
      }

      .cls-2 {
        fill: #04e762;
      }

      .cls-3 {
        fill: #eb008b;
      }

      .cls-4 {
        fill: #00a1e4;
      }
    </style>
  </defs>
  <title>nav-brand-cross</title>
  <g>
    <path class="cls-1" d="M69,21.2H58.9V11.5A11.7,11.7,0,0,0,47.2,0H32.1A10.9,10.9,0,0,0,21.2,11V21.2H11.5A11.6,11.6,0,0,0,0,32.8V47.9A10.9,10.9,0,0,0,11,58.8H21.2v9.7A11.6,11.6,0,0,0,32.8,80H47.9a11,11,0,0,0,11-11V58.8h9.7A11.6,11.6,0,0,0,80,47.2V32.1A10.9,10.9,0,0,0,69,21.2Z"/>
    <g>
      <path class="cls-2" d="M47.9,71.7H32.1A2.7,2.7,0,0,1,29.4,69V50.6H50.6V69A2.7,2.7,0,0,1,47.9,71.7Z"/>
      <path class="cls-3" d="M50.6,29.4H29.4V11a2.7,2.7,0,0,1,2.7-2.7H47.9A2.7,2.7,0,0,1,50.6,11Z"/>
      <path class="cls-4" d="M69,50.6H50.6V29.4H69a2.7,2.7,0,0,1,2.7,2.7V47.9A2.7,2.7,0,0,1,69,50.6Z"/>
      <path class="cls-2" d="M29.4,50.6H11a2.7,2.7,0,0,1-2.7-2.7V32.1A2.7,2.7,0,0,1,11,29.4H29.4Z"/>
    </g>
  </g>
</svg>
