<svg id="Layer_1" data-name="Layer 1" xmlns="http://www.w3.org/2000/svg" viewBox="0 0 48 48">
  <defs>
    <style>
      .cls-1 {
        fill: #00a1e4;
      }

      .cls-2 {
        fill: #fff;
      }
    </style>
  </defs>
  <title>verified-badge</title>
  <path class="cls-1" d="M45.833,13.821a8.033,8.033,0,0,0-5.842-2.168H36.349V8.309a8.368,8.368,0,0,0-2.294-6.054A8.376,8.376,0,0,0,27.99,0H19.665a8.029,8.029,0,0,0-5.841,2.167,8.033,8.033,0,0,0-2.168,5.842v3.645H8.308a8.363,8.363,0,0,0-6.053,2.294A8.375,8.375,0,0,0,0,20.013v8.325a8.03,8.03,0,0,0,2.167,5.841,8.033,8.033,0,0,0,5.842,2.168h3.647V39.69a8.364,8.364,0,0,0,2.294,6.055A8.375,8.375,0,0,0,20.016,48H28.34a8.033,8.033,0,0,0,5.842-2.167,8.033,8.033,0,0,0,2.168-5.842V36.346H39.69a8.364,8.364,0,0,0,6.055-2.294A8.375,8.375,0,0,0,48,27.987V19.662A8.034,8.034,0,0,0,45.833,13.821Z"/>
  <path class="cls-2" d="M34.418,19.852h0L22.133,32.038a1.03,1.03,0,0,1-1.458-.006l-7.1-7.155a1.032,1.032,0,0,1,.006-1.459L16.022,21A1.032,1.032,0,0,1,17.481,21l3.951,3.983,9.113-9.039A1.031,1.031,0,0,1,32,15.952l2.42,2.441A1.031,1.031,0,0,1,34.418,19.852Z"/>
</svg>
