<svg id="Layer_1" data-name="Layer 1" xmlns="http://www.w3.org/2000/svg" viewBox="0 0 35.6 48">
  <defs>
    <style>
      .cls-1 {
        opacity: 0.1;
      }

      .cls-2 {
        fill: #fff;
      }

      .cls-3 {
        fill: #04e762;
      }

      .cls-4 {
        fill: #c3e2f4;
      }

      .cls-5 {
        fill: #f7e0cd;
      }

      .cls-6 {
        fill: #75daf9;
      }

      .cls-7 {
        fill: #fbcca0;
      }
    </style>
  </defs>
  <title>retail-pin-disp</title>
  <g>
    <g>
      <g>
        <ellipse class="cls-1" cx="17.8" cy="43.2" rx="13.6" ry="4.8"/>
        <ellipse class="cls-1" cx="17.8" cy="43.2" rx="9.1" ry="3.2"/>
      </g>
      <g>
        <path d="M17.8,0A17.8,17.8,0,0,0,0,17.8c0,6,2.9,12.2,8.5,17.9a41.4,41.4,0,0,0,8.3,6.9l.3.2.7.4.7-.4.3-.2a44.7,44.7,0,0,0,8.3-6.9c5.5-5.7,8.5-11.9,8.5-17.9A17.8,17.8,0,0,0,17.8,0Z"/>
        <path class="cls-2" d="M17.8,6.6A11.2,11.2,0,1,0,29,17.8,11.2,11.2,0,0,0,17.8,6.6Z"/>
        <path class="cls-3" d="M17.8,2.5A15.2,15.2,0,0,0,2.5,17.8c0,11.9,13.1,21.1,15.3,22.5,2.1-1.4,15.3-10.6,15.3-22.5A15.3,15.3,0,0,0,17.8,2.5Zm0,28.1A12.8,12.8,0,1,1,30.6,17.8,12.8,12.8,0,0,1,17.8,30.6Z"/>
      </g>
    </g>
    <g>
      <g>
        <path d="M26.4,13.8l-1.9-3.1a1.2,1.2,0,0,0-.8-.4H11.6a1,1,0,0,0-.5.4L9.2,13.8a2.6,2.6,0,0,0,1.1,3.8v6.1a1.6,1.6,0,0,0,1.5,1.6H23.7a1.6,1.6,0,0,0,1.5-1.6V17.6A2.7,2.7,0,0,0,26.4,13.8Z"/>
        <polygon class="cls-4" points="16.1 23.5 16.1 23.5 16.1 23.5 16.1 23.5 16.1 23.5"/>
        <path class="cls-3" d="M17.8,15.4l.2.2.5.6a2,2,0,0,0,1.4.6,2,2,0,0,0,1.5-.6l.5-.6.2-.2.2.2.5.6a2,2,0,0,0,1.4.6h.3a1.5,1.5,0,0,0,1.2-.9,1.8,1.8,0,0,0-.1-1.6l-1.9-3.1H11.9L10,14.3A1.7,1.7,0,0,0,9.9,16h0a1.3,1.3,0,0,0,1.1.8h.3a2,2,0,0,0,1.5-.6l.5-.6.2-.2v.2l.6.6a1.8,1.8,0,0,0,1.4.6,2,2,0,0,0,1.5-.6l.5-.6Z"/>
        <path class="cls-5" d="M24.2,17.8a3.1,3.1,0,0,1-1.3-.3l-.8-.6-.9.6a2.8,2.8,0,0,1-1.3.3,2.9,2.9,0,0,1-2.1-.9l-.9.6a2.8,2.8,0,0,1-1.3.3,2.7,2.7,0,0,1-2.1-.9l-.9.6a2.8,2.8,0,0,1-1.3.3h-.1v5.9a.6.6,0,0,0,.6.6h7.5V18.5a.5.5,0,0,1,.5-.5h3.4a.5.5,0,0,1,.4.5v5.8h.1a.6.6,0,0,0,.6-.6V17.8ZM18,23.2a.5.5,0,0,1-.4.5H12.3a.5.5,0,0,1-.5-.5V18.5a.5.5,0,0,1,.5-.5h5.3a.5.5,0,0,1,.4.5Z"/>
        <rect class="cls-6" x="12.4" y="18.6" width="5" height="4.51"/>
        <rect class="cls-7" x="19.9" y="18.6" width="3.2" height="5.74"/>
        <circle cx="20.5" cy="21.7" r="0.3"/>
      </g>
      <g>
        <path d="M16.7,21.5l-.5-.2a2.6,2.6,0,0,0,.5-1,.2.2,0,0,0-.2-.2,3.5,3.5,0,0,0-1,.4,3.3,3.3,0,0,0-.4-1.4.2.2,0,0,0-.3,0,3.3,3.3,0,0,0-.4,1.4,3.6,3.6,0,0,0-1.1-.4c-.1,0-.1.1-.1.2a2.6,2.6,0,0,0,.5,1l-.5.2c-.1,0-.1.2,0,.2a2.2,2.2,0,0,0,.9.3v.2c-.1.1,0,.2.1.2a1.5,1.5,0,0,0,.6-.3v.5H15v-.5l.6.3a.2.2,0,0,0,.2-.2V22a2.3,2.3,0,0,0,1-.3C16.8,21.7,16.8,21.5,16.7,21.5Z"/>
        <path class="cls-3" d="M14.9,19.4a2.8,2.8,0,0,1,.4,1.3h0V21h.1a1.7,1.7,0,0,1,1-.5,2.1,2.1,0,0,1-.5.9h-.6v.2c.1.1.1.1.1.2l-.5-.3h-.1l-.5.3c0-.1,0-.1.1-.2v-.2H14a1.4,1.4,0,0,1-.5-.9,1.7,1.7,0,0,1,1,.5h.1v-.2h0a6.3,6.3,0,0,1,.3-1.3"/>
      </g>
    </g>
  </g>
</svg>
