<svg id="Layer_1" data-name="Layer 1" xmlns="http://www.w3.org/2000/svg" viewBox="0 0 340.6 112.5">
  <defs>
    <style>
      .cls-1 {
        opacity: 0.1;
      }

      .cls-2, .cls-5 {
        fill: #04e762;
      }

      .cls-2, .cls-3 {
        stroke: #000;
        stroke-miterlimit: 10;
      }

      .cls-3, .cls-4 {
        fill: #fff;
      }
    </style>
  </defs>
  <title>pin-dispensary-expanded</title>
  <g>
    <g>
      <ellipse class="cls-1" cx="170.3" cy="108" rx="12.8" ry="4.5"/>
      <ellipse class="cls-1" cx="170.3" cy="108" rx="8.6" ry="3"/>
    </g>
    <g>
      <path class="cls-2" d="M327.1.5H13.5a13,13,0,0,0-13,13V73.4a13,13,0,0,0,13,13h91.8c41.9,0,65,20.9,65,20.9s23.1-20.9,64.9-20.9h91.9a13,13,0,0,0,13-13V13.5A13,13,0,0,0,327.1.5Z"/>
      <path class="cls-3" d="M326.4,4.2H14.2a10,10,0,0,0-10,10V72.7a10,10,0,0,0,10,10h93.7c38.9,0,62.4,19.5,62.4,19.5s23.5-19.5,62.4-19.5h93.7a9.9,9.9,0,0,0,9.9-10V14.2A9.9,9.9,0,0,0,326.4,4.2Z"/>
      <g>
        <path class="cls-4" d="M178,89.9Z"/>
        <g>
          <path d="M178.5,88.4a12.1,12.1,0,0,0-4.1-.7,14.9,14.9,0,0,0,3.1-6.2l-.2-.4h-.5a16.4,16.4,0,0,0-4.6,4,17.4,17.4,0,0,0-3.4-7.6c-.1-.1-.2-.2-.4-.1a.3.3,0,0,0-.3.3,17.8,17.8,0,0,0-.1,8.3,15.8,15.8,0,0,0-5.8-1.8c-.2,0-.3.1-.4.3a.3.3,0,0,0,0,.4,15,15,0,0,0,5.3,4.5,12.1,12.1,0,0,0-3.4,2.2c-.2.1-.2.3-.1.5a.3.3,0,0,0,.3.3,11.9,11.9,0,0,0,4.2-.4c-.3.8-.4,1.5-.5,1.8a.8.8,0,0,0,.2.4.4.4,0,0,0,.5,0,7.6,7.6,0,0,0,2.5-2.4,10,10,0,0,0,2.1,4.1l.3.2h.1l.4-.3.3-.8v-.4a9.4,9.4,0,0,1-1.6-2.9,10.2,10.2,0,0,0,3,1.1.5.5,0,0,0,.4-.2.4.4,0,0,0,0-.5,6.8,6.8,0,0,0-1.1-1.4,14,14,0,0,0,4-1.4.5.5,0,0,0,.3-.4C178.8,88.6,178.7,88.4,178.5,88.4Z"/>
          <path class="cls-5" d="M171.5,90.3c.1,0,.3,0,.3.1A6.4,6.4,0,0,0,175,92l-1.5-1.5a.4.4,0,0,1-.1-.3.2.2,0,0,1,.2-.2,10.6,10.6,0,0,0,4.4-1.2,10.7,10.7,0,0,0-4.6-.3.2.2,0,0,1-.2-.2.2.2,0,0,1,0-.3h0c2.2-1.7,3.3-5.1,3.6-6.2a14.2,14.2,0,0,0-4.7,4.4h-.2a.2.2,0,0,1-.2-.2c-.1-3.5-2.4-6.9-3.1-8-.3,1.3-1,5.4.4,8.6a.4.4,0,0,1-.1.3h-.3a12.3,12.3,0,0,0-6.1-2.2c.8.9,3.1,3.6,5.8,4.3l.2.2a.2.2,0,0,1-.2.2,11.4,11.4,0,0,0-3.9,2.2,13,13,0,0,0,4.4-.6h.2a.4.4,0,0,1,.1.3,7.5,7.5,0,0,0-.8,2,5.8,5.8,0,0,0,2.3-2.9.2.2,0,0,1,.2-.2h0c.2,0,.2.1.3.2a12.7,12.7,0,0,0,2.1,4.7l.2-.4a10.6,10.6,0,0,1-2-4.2A.4.4,0,0,1,171.5,90.3Z"/>
        </g>
      </g>
    </g>
  </g>
</svg>
