<svg id="Layer_1" data-name="Layer 1" xmlns="http://www.w3.org/2000/svg" viewBox="0 0 35.6 48">
  <defs>
    <style>
      .cls-1 {
        opacity: 0.1;
      }

      .cls-2 {
        fill: #fff;
      }

      .cls-3 {
        fill: #04e762;
      }

      .cls-4 {
        fill: #eb008b;
      }

      .cls-5 {
        fill: #dbdbdb;
      }

      .cls-6 {
        fill: #75daf9;
      }
    </style>
  </defs>
  <title>retail-pin-disp-delivery</title>
  <g>
    <g>
      <g>
        <ellipse class="cls-1" cx="17.8" cy="43.2" rx="13.6" ry="4.8"/>
        <ellipse class="cls-1" cx="17.8" cy="43.2" rx="9.1" ry="3.2"/>
      </g>
      <g>
        <path d="M17.8,0A17.8,17.8,0,0,0,0,17.8c0,6,2.9,12.2,8.5,17.9a41.4,41.4,0,0,0,8.3,6.9l.3.2.7.4.7-.4.3-.2a44.7,44.7,0,0,0,8.3-6.9c5.5-5.7,8.5-11.9,8.5-17.9A17.8,17.8,0,0,0,17.8,0Z"/>
        <path class="cls-2" d="M17.8,6.6A11.2,11.2,0,1,0,29,17.8,11.2,11.2,0,0,0,17.8,6.6Z"/>
        <path class="cls-3" d="M17.8,2.5A15.2,15.2,0,0,0,2.5,17.8c0,11.9,13.1,21.1,15.3,22.5,2.1-1.4,15.3-10.6,15.3-22.5A15.3,15.3,0,0,0,17.8,2.5Zm0,28.1A12.8,12.8,0,1,1,30.6,17.8,12.8,12.8,0,0,1,17.8,30.6Z"/>
      </g>
    </g>
    <g>
      <g>
        <path d="M26,16.4l-1.4-.8s-2-2.8-2.5-3.3a3,3,0,0,0-2-.8H10.2a1.1,1.1,0,0,0-1.1,1.1v8.5a1.1,1.1,0,0,0,1.1,1.1h.7a2.2,2.2,0,0,0,2.2,1.9,2.2,2.2,0,0,0,2.2-1.9h5.4a2.1,2.1,0,0,0,2.2,1.9,2.2,2.2,0,0,0,2.2-1.9h.7a1.1,1.1,0,0,0,1.1-1.1V17.7A1.4,1.4,0,0,0,26,16.4Z"/>
        <path class="cls-4" d="M25.7,17.2h-.1l-1.5-.8H24c-.6-.9-2.2-3.1-2.5-3.4a2.2,2.2,0,0,0-1.4-.5H10.2l-.2.2v8.5l.2.2H11a2.1,2.1,0,0,1,2.1-1.7,2.3,2.3,0,0,1,2.2,1.7h5.4a2.2,2.2,0,0,1,2.2-1.7A2.1,2.1,0,0,1,25,21.3h.8l.2-.2V17.7A.5.5,0,0,0,25.7,17.2Zm-2.5-.8a.5.5,0,0,1-.5.3H18.1a.5.5,0,0,1-.5-.5V13.3a.5.5,0,0,1,.5-.5H20a1.8,1.8,0,0,1,1.1.4l2,2.6A.7.7,0,0,1,23.2,16.4Z"/>
        <circle class="cls-5" cx="13.1" cy="21.8" r="1.3"/>
        <circle class="cls-5" cx="22.9" cy="21.8" r="1.3"/>
        <path class="cls-6" d="M20,13.4l.7.2c.2.1,1.1,1.5,1.9,2.5H18.1V13.4H20"/>
      </g>
      <g>
        <path d="M16.2,16.9l-.6-.2a6.8,6.8,0,0,0,.6-1.5c.1-.1-.1-.3-.2-.2a4.6,4.6,0,0,0-1.5.5,5.1,5.1,0,0,0-.6-2h-.4a5.1,5.1,0,0,0-.6,2,4.6,4.6,0,0,0-1.5-.5c-.1-.1-.2.1-.2.2a5,5,0,0,0,.7,1.5l-.7.2a.2.2,0,0,0,0,.4,3.3,3.3,0,0,0,1.4.4c-.1,0-.1.3-.1.3s0,.3.2.2l.8-.3v.7h.4v-.7l.8.3c.2.1.3,0,.3-.2s-.1-.3-.2-.3a3.3,3.3,0,0,0,1.4-.4A.2.2,0,0,0,16.2,16.9Z"/>
        <path class="cls-3" d="M13.7,14a4.9,4.9,0,0,1,.5,1.8v.5l.2-.2a2.9,2.9,0,0,1,1.4-.7,2.1,2.1,0,0,1-.8,1.3v.2h.2l.7.2-1.1.2h-.4v.2a1,1,0,0,0,.1.3l-.7-.4h-.2l-.7.4a1,1,0,0,0,.1-.3l.2-.2h-.5l-1.1-.2.7-.2h.2v-.2a2.8,2.8,0,0,1-.8-1.3,2.9,2.9,0,0,1,1.4.7l.2.2v-.5a4.9,4.9,0,0,1,.5-1.8"/>
      </g>
    </g>
  </g>
</svg>
