<svg id="Layer_1" data-name="Layer 1" xmlns="http://www.w3.org/2000/svg" viewBox="0 0 35.6 48">
  <defs>
    <style>
      .cls-1 {
        opacity: 0.1;
      }

      .cls-2 {
        fill: #fff;
      }

      .cls-3 {
        fill: #ab0cf6;
      }

      .cls-4 {
        fill: #f7e0cd;
      }
    </style>
  </defs>
  <title>influencer-pin</title>
  <g>
    <g>
      <g>
        <ellipse class="cls-1" cx="17.8" cy="43.2" rx="13.6" ry="4.8"/>
        <ellipse class="cls-1" cx="17.8" cy="43.2" rx="9.1" ry="3.2"/>
      </g>
      <g>
        <path d="M17.8,0A17.8,17.8,0,0,0,0,17.8c0,6,2.9,12.2,8.5,17.9a41.4,41.4,0,0,0,8.3,6.9l.3.2.7.4.7-.4.3-.2a44.7,44.7,0,0,0,8.3-6.9c5.5-5.7,8.5-11.9,8.5-17.9A17.8,17.8,0,0,0,17.8,0Z"/>
        <path class="cls-2" d="M17.8,6.6A11.2,11.2,0,1,0,29,17.8,11.2,11.2,0,0,0,17.8,6.6Z"/>
        <path class="cls-3" d="M17.8,2.5A15.2,15.2,0,0,0,2.5,17.8c0,11.9,13.1,21.1,15.3,22.5,2.1-1.4,15.3-10.6,15.3-22.5A15.3,15.3,0,0,0,17.8,2.5Zm0,28.1A12.8,12.8,0,1,1,30.6,17.8,12.8,12.8,0,0,1,17.8,30.6Z"/>
      </g>
    </g>
    <g>
      <path d="M25.3,15.7V11.2a1,1,0,0,0-1-.9h0l-.6.2-2.4,2A7.1,7.1,0,0,1,16.9,14H11.3a1.9,1.9,0,0,0-1.9,1.9v2.8a1.9,1.9,0,0,0,1.9,1.9v.9a7.1,7.1,0,0,0,.7,3.2,1,1,0,0,0,.8.5h3.1a1,1,0,0,0,.8-1.5,3.5,3.5,0,0,1-.8-2.2,2.4,2.4,0,0,1,.2-.9h.8a7.1,7.1,0,0,1,4.4,1.5l2.4,2,.6.2a1.1,1.1,0,0,0,1-1V18.9a1.9,1.9,0,0,0,0-3.2Z"/>
      <path class="cls-3" d="M11.3,19.6a1,1,0,0,1-1-.9V15.9a1,1,0,0,1,1-.9h5.6v4.6Z"/>
      <path class="cls-4" d="M15.9,24.3H12.8a6.7,6.7,0,0,1-.6-2.8v-.9h2.9a2.8,2.8,0,0,0-.1.9,4.7,4.7,0,0,0,.9,2.8Z"/>
      <path class="cls-4" d="M24.3,23.3h0l-2.5-1.9a7.2,7.2,0,0,0-4-1.7V14.9a8,8,0,0,0,4-1.7l2.5-2h0V23.3Z"/>
    </g>
  </g>
</svg>
