<svg width="341px" height="113px" viewBox="0 0 341 113" version="1.1" xmlns="http://www.w3.org/2000/svg" xmlns:xlink="http://www.w3.org/1999/xlink">
    <g id="Page-1" stroke="none" stroke-width="1" fill="none" fill-rule="evenodd">
        <g id="dispensary-expanded" fill-rule="nonzero">
            <g id="Group" transform="translate(157.000000, 103.000000)" fill="#000000" opacity="0.1">
                <ellipse id="Oval" cx="13.3" cy="5" rx="12.8" ry="4.5"></ellipse>
                <ellipse id="Oval" cx="13.3" cy="5" rx="8.6" ry="3"></ellipse>
            </g>
            <g id="Group" stroke="#000000">
                <path d="M327.1,0.5 L13.5,0.5 C6.32029825,0.5 0.5,6.32029825 0.5,13.5 L0.5,73.4 C0.5,80.5797017 6.32029825,86.4 13.5,86.4 L105.3,86.4 C147.2,86.4 170.3,107.3 170.3,107.3 C170.3,107.3 193.4,86.4 235.2,86.4 L327.1,86.4 C334.279702,86.4 340.1,80.5797017 340.1,73.4 L340.1,13.5 C340.1,10.0521856 338.730361,6.74558476 336.292388,4.30761184 C333.854415,1.86963892 330.547814,0.5 327.1,0.5 Z" id="Shape" fill="#AB0CF6"></path>
                <path d="M326.4,4.2 L14.2,4.2 C8.6771525,4.2 4.2,8.6771525 4.2,14.2 L4.2,72.7 C4.2,75.3521649 5.2535684,77.895704 7.12893219,79.7710678 C9.00429597,81.6464316 11.5478351,82.7 14.2,82.7 L107.9,82.7 C146.8,82.7 170.3,102.2 170.3,102.2 C170.3,102.2 193.8,82.7 232.7,82.7 L326.4,82.7 C329.043062,82.7001348 331.576439,81.6433862 333.435951,79.7650915 C335.295463,77.8867969 336.326698,75.3429267 336.3,72.7 L336.3,14.2 C336.326698,11.5570733 335.295463,9.0132031 333.435951,7.13490847 C331.576439,5.25661384 329.043062,4.19986516 326.4,4.2 Z" id="Shape" fill="#FFFFFF"></path>
            </g>
            <g id="Group" transform="translate(162.000000, 79.000000)">
                <path d="M16.3,5.7 L16.3,1.2 C16.248458,0.687098707 15.8154781,0.297416752 15.3,0.3 L14.7,0.5 L12.3,2.5 C11.0432104,3.47958024 9.49343497,4.00791276 7.9,4 L2.3,4 C1.25065898,4 0.4,4.85065898 0.4,5.9 L0.4,8.7 C0.4,9.74934102 1.25065898,10.6 2.3,10.6 L2.3,11.5 C2.28072066,12.6066471 2.52043315,13.7024755 3,14.7 C3.16635428,14.9898844 3.46653296,15.177496 3.8,15.2 L6.9,15.2 C7.24540989,15.1775674 7.55465642,14.978106 7.71754469,14.6726905 C7.88043295,14.367275 7.87379646,13.9993426 7.7,13.7 C7.18872708,13.0802256 6.90625175,12.3034185 6.9,11.5 C6.90787654,11.1898939 6.97579617,10.8842556 7.1,10.6 L7.9,10.6 C9.49343497,10.5920872 11.0432104,11.1204198 12.3,12.1 L14.7,14.1 L15.3,14.3 C15.8318336,14.2534963 16.2534963,13.8318336 16.3,13.3 L16.3,8.9 C16.845397,8.55070898 17.1753049,7.94765895 17.1753049,7.3 C17.1753049,6.65234105 16.845397,6.04929102 16.3,5.7 Z" id="Shape" fill="#000000"></path>
                <path d="M2.3,9.6 C1.78452193,9.60258325 1.35154198,9.21290129 1.3,8.7 L1.3,5.9 C1.35154198,5.38709871 1.78452193,4.99741675 2.3,5 L7.9,4.99998723 L7.9,9.60001277 L2.3,9.6 Z" id="Shape" fill="#AB0CF6"></path>
                <path d="M6.9,14.3 L3.8,14.3 C3.40055417,13.420812 3.1958801,12.4656664 3.2,11.5 L3.2,10.6 L6.1,10.6 C6.01805514,10.892587 5.98428021,11.1965613 6,11.5 C5.99273223,12.5055812 6.30818247,13.4869819 6.9,14.3 Z" id="Shape" fill="#F7E0CD"></path>
                <path d="M15.3,13.3 L12.8,11.4 C11.6736167,10.4348227 10.2766171,9.84109785 8.8,9.7 L8.8,4.9 C10.264665,4.71331967 11.6490942,4.12493723 12.8,3.2 L15.3,1.2 L15.3,13.3 Z" id="Shape" fill="#F7E0CD"></path>
            </g>
        </g>
    </g>
</svg>
