<svg id="Layer_1" data-name="Layer 1" xmlns="http://www.w3.org/2000/svg" viewBox="0 0 35.6 48">
  <defs>
    <style>
      .cls-1 {
        opacity: 0.1;
      }

      .cls-2 {
        fill: #fff;
      }

      .cls-3 {
        fill: #eb008b;
      }

      .cls-4 {
        fill: #c3e2f4;
      }

      .cls-5 {
        fill: #e9078a;
      }

      .cls-6 {
        fill: #f7e0cd;
      }

      .cls-7 {
        fill: #75daf9;
      }

      .cls-8 {
        fill: #fbcca0;
      }

      .cls-9 {
        fill: #04e762;
      }

      .cls-10 {
        fill: #00a1e4;
      }
    </style>
  </defs>
  <title>retail-pin</title>
  <g>
    <g>
      <g>
        <ellipse class="cls-1" cx="17.8" cy="43.2" rx="13.6" ry="4.8"/>
        <ellipse class="cls-1" cx="17.8" cy="43.2" rx="9.1" ry="3.2"/>
      </g>
      <g>
        <path d="M17.8,0A17.8,17.8,0,0,0,0,17.8c0,6,2.9,12.2,8.5,17.9a41.4,41.4,0,0,0,8.3,6.9l.3.2.7.4.7-.4.3-.2a44.7,44.7,0,0,0,8.3-6.9c5.5-5.7,8.5-11.9,8.5-17.9A17.8,17.8,0,0,0,17.8,0Z"/>
        <path class="cls-2" d="M17.8,6.6A11.2,11.2,0,1,0,29,17.8,11.2,11.2,0,0,0,17.8,6.6Z"/>
        <path class="cls-3" d="M17.8,2.5A15.2,15.2,0,0,0,2.5,17.8c0,11.9,13.1,21.1,15.3,22.5,2.1-1.4,15.3-10.6,15.3-22.5A15.3,15.3,0,0,0,17.8,2.5Zm0,28.1A12.8,12.8,0,1,1,30.6,17.8,12.8,12.8,0,0,1,17.8,30.6Z"/>
      </g>
    </g>
    <g>
      <g>
        <path d="M26.4,13.8l-1.9-3.1a1.2,1.2,0,0,0-.8-.4H11.6a1,1,0,0,0-.5.4L9.2,13.8a2.6,2.6,0,0,0,1.1,3.8v6.1a1.6,1.6,0,0,0,1.5,1.6H23.7a1.6,1.6,0,0,0,1.5-1.6V17.6A2.7,2.7,0,0,0,26.4,13.8Z"/>
        <polygon class="cls-4" points="16.1 23.5 16.1 23.5 16.1 23.5 16.1 23.5 16.1 23.5"/>
        <path class="cls-5" d="M17.8,15.4l.2.2.5.6a2,2,0,0,0,1.4.6,2,2,0,0,0,1.5-.6l.5-.6.2-.2.2.2.5.6a2,2,0,0,0,1.4.6h.3a1.5,1.5,0,0,0,1.2-.9,1.8,1.8,0,0,0-.1-1.6l-1.9-3.1H11.9L10,14.3A1.7,1.7,0,0,0,9.9,16h0a1.3,1.3,0,0,0,1.1.8h.3a2,2,0,0,0,1.5-.6l.5-.6.2-.2v.2l.6.6a1.8,1.8,0,0,0,1.4.6,2,2,0,0,0,1.5-.6l.5-.6Z"/>
        <path class="cls-6" d="M24.2,17.8a3.1,3.1,0,0,1-1.3-.3l-.8-.6-.9.6a2.8,2.8,0,0,1-1.3.3,2.9,2.9,0,0,1-2.1-.9l-.9.6a2.8,2.8,0,0,1-1.3.3,2.7,2.7,0,0,1-2.1-.9l-.9.6a2.8,2.8,0,0,1-1.3.3h-.1v5.9a.6.6,0,0,0,.6.6h7.5V18.5a.5.5,0,0,1,.5-.5h3.4a.5.5,0,0,1,.4.5v5.8h.1a.6.6,0,0,0,.6-.6V17.8ZM18,23.2a.5.5,0,0,1-.4.5H12.3a.5.5,0,0,1-.5-.5V18.5a.5.5,0,0,1,.5-.5h5.3a.5.5,0,0,1,.4.5Z"/>
        <rect class="cls-7" x="12.4" y="18.6" width="5" height="4.51"/>
        <rect class="cls-8" x="19.9" y="18.6" width="3.2" height="5.74"/>
        <circle cx="20.5" cy="21.7" r="0.3"/>
      </g>
      <g>
        <g>
          <path d="M16.5,20.1h-.7v-.2h0a.8.8,0,0,0-.2-.5H14.2a.6.6,0,0,0-.1.4V20h-.7a.7.7,0,0,0-.1.5v.5c0,.2,0,.3.1.4l.4.2h.3v.2h0c0,.2,0,.3.1.4s.3.2.5.2h.9a.8.8,0,0,0,.2-.5v-.2H16l.4-.2a.5.5,0,0,0,.2-.4v-.6A.6.6,0,0,0,16.5,20.1Z"/>
          <path class="cls-2" d="M16,20.2h-.4v-.4c0-.3-.1-.4-.4-.4h-.6a.3.3,0,0,0-.3.3v.5h-.5c-.2,0-.3.1-.3.4v.5c0,.3.1.4.3.4h.5v.4c0,.3.1.4.4.4h.5c.3,0,.4-.1.4-.4v-.4H16c.3,0,.4-.1.4-.4v-.6C16.4,20.3,16.3,20.2,16,20.2Z"/>
        </g>
        <g>
          <path class="cls-9" d="M15.2,22.1h-.6a.3.3,0,0,1-.1-.2v-.7h.8v.7C15.3,22,15.3,22.1,15.2,22.1Z"/>
          <path class="cls-3" d="M15.3,20.4h-.8v-.7h.8Z"/>
          <path class="cls-10" d="M16,21.2h-.7v-.8h.9v.6Z"/>
          <path class="cls-9" d="M14.5,21.2h-.8v-.6h.8Z"/>
        </g>
      </g>
    </g>
  </g>
</svg>
