<svg id="Layer_1" data-name="Layer 1" xmlns="http://www.w3.org/2000/svg" viewBox="0 0 340.6 112.5">
  <defs>
    <style>
      .cls-1 {
        opacity: 0.1;
      }

      .cls-2, .cls-8 {
        fill: #00a1e4;
      }

      .cls-2, .cls-3 {
        stroke: #000;
      }

      .cls-2, .cls-3, .cls-5 {
        stroke-miterlimit: 10;
      }

      .cls-3, .cls-6 {
        fill: #fff;
      }

      .cls-4 {
        fill: #fbcca0;
      }

      .cls-5 {
        fill: none;
        stroke: #231f20;
        stroke-width: 0.75px;
      }

      .cls-7 {
        fill: #5c2f11;
      }
    </style>
  </defs>
  <title>pin-service-expanded</title>
  <g>
    <g>
      <ellipse class="cls-1" cx="170.3" cy="108" rx="12.8" ry="4.5"/>
      <ellipse class="cls-1" cx="170.3" cy="108" rx="8.6" ry="3"/>
    </g>
    <path class="cls-2" d="M327.1.5H13.5a13,13,0,0,0-13,13V73.4a13,13,0,0,0,13,13h91.8c41.9,0,65,20.9,65,20.9s23.1-20.9,64.9-20.9h91.9a13,13,0,0,0,13-13V13.5A13,13,0,0,0,327.1.5Z"/>
    <path class="cls-3" d="M326.4,4.2H14.2a10,10,0,0,0-10,10V72.7a10,10,0,0,0,10,10h93.7c38.9,0,62.4,19.5,62.4,19.5s23.5-19.5,62.4-19.5h93.7a9.9,9.9,0,0,0,9.9-10V14.2A9.9,9.9,0,0,0,326.4,4.2Z"/>
    <g>
      <path d="M164.2,95h12.2V93.7a2.3,2.3,0,0,0-1-2.1l-1.3-.5-1.8-.8V88.8l.6-.6a2.4,2.4,0,0,0,.7-1.8h.2c.4-.5.9-1.7.5-2.3l-.2-.2a6.9,6.9,0,0,0,.2-1.3,3.4,3.4,0,0,0-2.4-3.9,4.5,4.5,0,0,0-3.7.3,1.6,1.6,0,0,0-.7.7h-.2c-1.5.5-1.5,2.4-1.3,3.4h0v.7l-.2.2c-.4.6.1,1.8.5,2.3h.2a2.4,2.4,0,0,0,.7,1.8l.6.6v1.5l-1.8.8-1.2.5h-.1a2.2,2.2,0,0,0-.9,2Z"/>
      <g>
        <g>
          <path class="cls-4" d="M170.4,89.6H170a2,2,0,0,1-1.4-.6v1.4l1.6.8,1.7-.8V89A2.4,2.4,0,0,1,170.4,89.6Z"/>
          <path class="cls-5" d="M170.2,92.5"/>
          <path class="cls-5" d="M167.4,90.8"/>
          <path class="cls-5" d="M170.2,92.5"/>
          <path class="cls-5" d="M173,90.8"/>
        </g>
        <path class="cls-4" d="M173.5,84.1v1.7l.2-.2c.2-.5.4-1.1.2-1.4l-.3-.2Z"/>
        <polygon class="cls-6" points="170.5 91.5 171.3 92.1 171.8 90.9 170.5 91.5"/>
        <polygon class="cls-6" points="168.6 90.9 169.1 92.1 169.9 91.5 168.6 90.9"/>
        <polygon class="cls-6" points="169.6 93.7 169.2 92.5 169.7 92.1 169.9 92.4 169.6 93.7"/>
        <polygon class="cls-6" points="170.5 92.4 170.7 92.1 171.2 92.5 170.8 93.7 170.5 92.4"/>
        <path class="cls-4" d="M166.9,85.1v-.2a1.2,1.2,0,0,0-.2-.8h-.2c-.2.3,0,.9.2,1.4l.2.2v-.7Z"/>
        <path class="cls-7" d="M170.2,81.8a6.5,6.5,0,0,1,1.9.2c.8.2,1,1.4,1.1,2.2a.5.5,0,0,1,.2-.4h.2a6.9,6.9,0,0,0,.2-1.3c.1-1.4-.4-3-2-3.4a3.9,3.9,0,0,0-3.1.3,1.8,1.8,0,0,0-.7.5h0v.2h-.1c0,.1,0,.1-.1.1h0c-1.3.3-1.1,2-1.1,2.5v.2c0,.2.1.5.1.8h.2a.5.5,0,0,1,.2.4c.1-.8.3-2,1.2-2.2A5.5,5.5,0,0,1,170.2,81.8Z"/>
        <path class="cls-4" d="M172.8,85.1v-.2c0-.6-.1-2.4-.8-2.5a7.3,7.3,0,0,0-3.6,0c-.7.1-.8,1.9-.8,2.5v.2h-.3v1.3a2.4,2.4,0,0,0,.5,1.4l.9.8a1.6,1.6,0,0,0,1.3.6h.4a1.6,1.6,0,0,0,1.3-.6l.9-.8a2.4,2.4,0,0,0,.5-1.4V85.1Z"/>
      </g>
      <path class="cls-8" d="M175.8,94.4v-.8a1.3,1.3,0,0,0-.7-1.4l-1-.4-1.4,2.6Z"/>
      <polygon class="cls-8" points="172.1 94.4 173.6 91.6 172.4 91 171.2 94.4 172.1 94.4"/>
      <polygon class="cls-8" points="169.2 94.4 168.1 91 166.8 91.6 168.3 94.4 169.2 94.4"/>
      <path class="cls-8" d="M164.7,94.4h2.9l-1.4-2.6-1,.4a1.6,1.6,0,0,0-.6,1.3Z"/>
    </g>
  </g>
</svg>
