<svg id="Layer_1" data-name="Layer 1" xmlns="http://www.w3.org/2000/svg" viewBox="0 0 35.6 48">
  <defs>
    <style>
      .cls-1 {
        opacity: 0.1;
      }

      .cls-2 {
        fill: #00a1e4;
      }

      .cls-3 {
        fill: #fbcca0;
      }

      .cls-4 {
        fill: none;
        stroke: #231f20;
        stroke-miterlimit: 10;
        stroke-width: 0.75px;
      }

      .cls-5 {
        fill: #5c2f11;
      }

      .cls-6 {
        fill: #fff;
      }
    </style>
  </defs>
  <title>service-pin</title>
  <g>
    <g>
      <ellipse class="cls-1" cx="17.8" cy="43.2" rx="13.6" ry="4.8"/>
      <ellipse class="cls-1" cx="17.8" cy="43.2" rx="9.1" ry="3.2"/>
    </g>
    <g>
      <path d="M17.8,0A17.8,17.8,0,0,0,0,17.8c0,6,2.9,12.2,8.5,17.9a41.4,41.4,0,0,0,8.3,6.9l.3.2.7.4.7-.4.3-.2a44.7,44.7,0,0,0,8.3-6.9c5.5-5.7,8.5-11.9,8.5-17.9A17.8,17.8,0,0,0,17.8,0Z"/>
      <path class="cls-2" d="M17.8,2.5A15.2,15.2,0,0,0,2.5,17.8c0,11.9,13.1,21.1,15.3,22.5,2.1-1.4,15.3-10.6,15.3-22.5A15.3,15.3,0,0,0,17.8,2.5Zm0,28.1A12.8,12.8,0,1,1,30.6,17.8,12.8,12.8,0,0,1,17.8,30.6Z"/>
      <g>
        <g>
          <g>
            <g>
              <path class="cls-3" d="M18,23.6h-.4a2.6,2.6,0,0,1-1.8-.7V24l2,1,1.9-1V22.9A2.3,2.3,0,0,1,18,23.6Z"/>
              <path class="cls-4" d="M17.8,26.8"/>
              <path class="cls-4" d="M17.8,26.8"/>
            </g>
            <path class="cls-3" d="M13.9,18.1v-.3c0-.7-.2-1-.3-1h0l-.2.2c-.2.3,0,1.1.3,1.6l.2.3v-.8Z"/>
            <path class="cls-5" d="M17.8,14.1l2.2.3c.9.2,1.2,1.7,1.3,2.6s.1-.4.3-.5h.1a5,5,0,0,0,.3-1.6c.1-1.6-.4-3.4-2.3-3.9a4.5,4.5,0,0,0-3.7.3,2.7,2.7,0,0,0-.8.7h0v.2h-.3c-1.4.4-1.3,2.3-1.2,3h0c.1.3.1.7.2,1H14l.3.5c0-.9.3-2.4,1.3-2.6A8.3,8.3,0,0,1,17.8,14.1Z"/>
            <path class="cls-3" d="M20.8,18.1v-.3c0-.7-.1-2.8-.9-3a9.9,9.9,0,0,0-4.2,0c-.9.2-1,2.3-1,3v.3h-.3v1.5a2.5,2.5,0,0,0,.6,1.6l1,1a2.3,2.3,0,0,0,1.6.6H18a2.5,2.5,0,0,0,1.6-.6l1-1a2.5,2.5,0,0,0,.6-1.6V18.1Z"/>
          </g>
          <path class="cls-3" d="M21.7,18.1v-.3a1.9,1.9,0,0,1,.2-1h0c.1.1.2.1.2.2s0,1.1-.2,1.6-.2.3-.3.3v-.8Z"/>
        </g>
        <g>
          <polygon class="cls-6" points="18.3 26.3 18.1 26.6 18.6 28.4 19.2 26.8 18.3 26.3"/>
          <polygon class="cls-6" points="19.3 26.5 20 24.7 18.1 25.6 18.1 25.6 19.3 26.5"/>
        </g>
        <g>
          <polygon class="cls-6" points="17.2 26.3 17.5 26.6 17 28.4 16.4 26.8 17.2 26.3"/>
          <polygon class="cls-6" points="16.3 26.5 15.6 24.7 17.5 25.6 17.5 25.6 16.3 26.5"/>
        </g>
      </g>
      <path class="cls-2" d="M23.7,26.4l-1.1-.5-1.8,2.7a10.9,10.9,0,0,0,3.4-1.7A1.2,1.2,0,0,0,23.7,26.4Z"/>
      <path class="cls-2" d="M11.9,26.4a1,1,0,0,0-.6.5,11.4,11.4,0,0,0,3.5,1.7l-1.9-2.7Z"/>
      <path class="cls-2" d="M13.6,25.6l2.2,3.2h.9l-1.5-4Z"/>
      <path class="cls-2" d="M20.3,24.9l-1.4,4h.8L22,25.6Z"/>
      <path class="cls-6" d="M17.8,6.6A11.2,11.2,0,0,0,6.6,17.8a11.3,11.3,0,0,0,3.7,8.4,2,2,0,0,1,.9-.9h.1l1.6-.6,1.8-.8V22.6l-.6-.6a3.7,3.7,0,0,1-1-2.2c0-.1,0-.1-.1-.1a3.5,3.5,0,0,1-.7-1.5,2.4,2.4,0,0,1,.2-1.9h0v-.2a.6.6,0,0,1-.1-.4h0a5.4,5.4,0,0,1,.1-2.5,2.5,2.5,0,0,1,1.7-2h.1a3.2,3.2,0,0,1,1-1,5.5,5.5,0,0,1,2.6-.6,8.2,8.2,0,0,1,2.1.2,4.3,4.3,0,0,1,2.5,1.9,5.1,5.1,0,0,1,.7,3.3,3.6,3.6,0,0,1-.2,1.4h.1a2.4,2.4,0,0,1,.2,1.9,3.6,3.6,0,0,1-.8,1.5h-.1a2.8,2.8,0,0,1-1,2.2l-.5.6v1.2l1.8.8,1.5.7h.1a2,2,0,0,1,.9.9A11.4,11.4,0,0,0,29,17.8,11.2,11.2,0,0,0,17.8,6.6Z"/>
    </g>
  </g>
</svg>
